<?xml version="1.0"?>
<svg xmlns="http://www.w3.org/2000/svg" viewBox="0 0 64 64" width="512" height="512"><g id="Outline"><g><path d="M44,35a3,3,0,1,0-3-3A3,3,0,0,0,44,35Zm0-4a1,1,0,1,1-1,1A1,1,0,0,1,44,31Z"/><path d="M51.44,29.79a7.93,7.93,0,0,1,3.77,3.77,1,1,0,0,0,.91.57,1,1,0,0,0,.43-.1A1,1,0,0,0,57,32.7,10.1,10.1,0,0,0,52.3,28a1,1,0,0,0-.86,1.81Z"/><circle cx="57" cy="37" r="1"/><path d="M50.89,33.55a1,1,0,0,0-1.78,0L46,39.76l-1.11-2.21a1,1,0,0,0-1.78,0l-2.57,5.14A1,1,0,0,0,41,44a1.06,1.06,0,0,0,.45.11,1,1,0,0,0,.9-.55L44,40.24,44.88,42l-1.39,2.79a1,1,0,0,0,.44,1.34,1.06,1.06,0,0,0,.45.11,1,1,0,0,0,.9-.56L50,36.24l3.67,7.35A1,1,0,0,0,55,44a1,1,0,0,0,.44-1.34Z"/><path d="M48.9,23.05A5,5,0,0,0,44,19H43V18a3,3,0,0,0-3-3H24a3,3,0,0,0-3,3v1H20a5,5,0,0,0-4.9,4,13.88,13.88,0,0,0-7.35,2.67,1,1,0,1,0,1.18,1.61,12,12,0,1,1-2.61,2.61,1,1,0,1,0-1.61-1.18,14,14,0,1,0,25.22,9.66L32,38l2.07.39A14,14,0,1,0,48.9,23.05ZM23,18a1,1,0,0,1,1-1H40a1,1,0,0,1,1,1v1H23ZM48,49A12,12,0,0,1,36,37a11.88,11.88,0,0,1,2.32-7.07,1,1,0,1,0-1.61-1.18A13.81,13.81,0,0,0,34,36.36L32.18,36a.73.73,0,0,0-.36,0L30,36.36a14,14,0,0,0-12.8-13.3A3,3,0,0,1,20,21H44a3,3,0,0,1,2.83,2.05,13.85,13.85,0,0,0-7.08,2.66,1,1,0,1,0,1.18,1.61A12,12,0,1,1,48,49Z"/><path d="M32,23a5,5,0,0,0-4.31,2.5,1,1,0,0,0,.36,1.36,1,1,0,0,0,1.37-.36,3,3,0,0,1,5.16,0,1,1,0,0,0,.87.5.93.93,0,0,0,.5-.14,1,1,0,0,0,.36-1.36A5,5,0,0,0,32,23Z"/><path d="M15,32a3,3,0,1,0-3,3A3,3,0,0,0,15,32Zm-4,0a1,1,0,1,1,1,1A1,1,0,0,1,11,32Z"/><path d="M20.3,28a1,1,0,0,0-.86,1.81,7.93,7.93,0,0,1,3.77,3.77,1,1,0,0,0,.91.57,1,1,0,0,0,.43-.1A1,1,0,0,0,25,32.7,10.1,10.1,0,0,0,20.3,28Z"/><circle cx="25" cy="37" r="1"/><path d="M9,44a1.06,1.06,0,0,0,.45.11,1,1,0,0,0,.9-.55L12,40.24,12.88,42l-1.39,2.79a1,1,0,0,0,.44,1.34,1.06,1.06,0,0,0,.45.11,1,1,0,0,0,.9-.56L18,36.24l3.67,7.35A1,1,0,0,0,23,44a1,1,0,0,0,.44-1.34l-4.57-9.14a1,1,0,0,0-1.78,0L14,39.76l-1.11-2.21a1,1,0,0,0-1.78,0L8.54,42.69A1,1,0,0,0,9,44Z"/></g></g></svg>
