<svg height="512" viewBox="0 0 60 59" width="512" xmlns="http://www.w3.org/2000/svg"><g id="005---Surfing" fill="none" fill-rule="evenodd"><g fill-rule="nonzero"><path id="Shape" d="m49.98 36.92c-4.82 12.86-8.73 17.45-12.3 20.28-.6463131.5110844-1.4460294.7893997-2.27.79h-5.51l-7.9.01 8.68-32.57c.07-.14.14-.29.21-.43 3.8578803-8.0463855 10.1665551-14.6631422 18.02-18.9.2395731-.12611354.524203-.13350652.77-.02.2221871.09138605.3986139.26781294.49.49 3.6472413 9.8000331 3.5796529 20.5963989-.19 30.35z" fill="#285680"/><path id="Shape" d="m49.68 6.08-19.78 51.91-7.9.01 8.68-32.57c.07-.14.14-.29.21-.43 3.8578803-8.0463855 10.1665551-14.6631422 18.02-18.9.2395731-.12611354.524203-.13350652.77-.02z" fill="#4482c3"/><path id="Shape" d="m31 31c0 3.54-.13 6.58-.35 9.22-.18 2.07-.42 3.89-.71 5.5-.5551133 3.6594701-1.8041644 7.1792144-3.68 10.37-.7231201 1.1905549-2.0170551 1.9153103-3.41 1.91h-7.7c-1.3929449.0053103-2.6868799-.7194451-3.41-1.91-1.87583564-3.1907856-3.12488667-6.7105299-3.68-10.37-.29-1.61-.53-3.43-.71-5.5-.22-2.64-.35-5.68-.35-9.22 0-.52.01-1.03.02-1.54.06804065-2.165261.28185798-4.3234797.64-6.46 1.32772198-8.409096 5.0058454-16.27147494 10.61-22.68.1879969-.2038699.4526811-.31983657.73-.31983657s.5420031.11596667.73.31983657c5.6041546 6.40852506 9.282278 14.270904 10.61 22.68.358142 2.1365203.5719594 4.294739.64 6.46.01.51.02 1.02.02 1.54z" fill="#f5efca"/><path id="Shape" d="m31 31c0 3.54-.13 6.58-.35 9.22-.18 2.07-.42 3.89-.71 5.5-.5551133 3.6594701-1.8041644 7.1792144-3.68 10.37-.7231201 1.1905549-2.0170551 1.9153103-3.41 1.91l-3.85.000029v-58.00004477c.2776802-.0015582.5429924.11474304.73.32001577 5.6041546 6.40852506 9.282278 14.270904 10.61 22.68.358142 2.1365203.5719594 4.294739.64 6.46.01.51.02 1.02.02 1.54z" fill="#f9eab0"/><path id="Shape" d="m19 15.22v6c-.2086178.0000513-.4117873.0666068-.58.19l-11.4 8.05c.06804065-2.165261.28185798-4.3234797.64-6.46l10.76-7.59c.1682127-.1233932.3713822-.1899487.58-.19z" fill="#67b9cc"/><path id="Shape" d="m30.98 29.46-11.4-8.05c-.1682127-.1233932-.3713822-.1899487-.58-.19v-6c.2086178.0000513.4117873.0666068.58.19l10.76 7.59c.162.975.3 1.974.406 3 .1173333 1.122.1953333 2.2753333.234 3.46z" fill="#2fa8cc"/><path id="Shape" d="m19 32.22v6c-.2086178.0000513-.4117873.0666068-.58.19l-10.36 7.31c-.29-1.61-.53-3.43-.71-5.5l11.07-7.81c.1682127-.1233932.3713822-.1899487.58-.19z" fill="#67b9cc"/><path id="Shape" d="m30.65 40.22c-.18 2.07-.42 3.89-.71 5.5l-10.36-7.31c-.1682127-.1233932-.3713822-.1899487-.58-.19v-6c.2086178.0000513.4117873.0666068.58.19z" fill="#2fa8cc"/></g><path id="Shape" d="m29.9 58v-.01" stroke="#000" stroke-linecap="round" stroke-linejoin="round" stroke-width="2"/><path id="Shape" d="m53 59h-46c-.55228475 0-1-.4477153-1-1s.44771525-1 1-1h46c.5522847 0 1 .4477153 1 1s-.4477153 1-1 1z" fill="#f3d55b" fill-rule="nonzero"/><path id="Shape" d="m3 59h-2c-.55228475 0-1-.4477153-1-1s.44771525-1 1-1h2c.55228475 0 1 .4477153 1 1s-.44771525 1-1 1z" fill="#f3d55b" fill-rule="nonzero"/><path id="Shape" d="m59 59h-2c-.5522847 0-1-.4477153-1-1s.4477153-1 1-1h2c.5522847 0 1 .4477153 1 1s-.4477153 1-1 1z" fill="#f3d55b" fill-rule="nonzero"/></g></svg>