<svg xmlns="http://www.w3.org/2000/svg" width="180" height="180" viewBox="0 0 180 180">
    <g fill="none" fill-rule="nonzero" transform="translate(0 23)">
        <path fill="#E9F5F4" d="M96.88 8a15.07 15.07 0 0 0-26.11.05L47.24 49 23.72 90a15.07 15.07 0 0 0 13.1 22.58l47.23-.1 47.23-.1a15.07 15.07 0 0 0 13-22.64l-23.7-40.85L96.88 8z"/>
        <ellipse cx="58.47" cy="121.23" fill="#F2F0F0" rx="57.3" ry="6.46"/>
        <path fill="#231F20" d="M19.58 63.69h-8.13a6.4 6.4 0 0 1-6.39-6.39V35.45a6.4 6.4 0 0 1 6.39-6.39H24v.53H11.45a5.87 5.87 0 0 0-5.86 5.86V57.3a5.87 5.87 0 0 0 5.86 5.86h8.13v.53zM14.05 87.56h-.54v-6.47a5.7 5.7 0 0 1 5.7-5.7h57v.53H19.38a5.34 5.34 0 0 0-5.33 5.34v6.3z"/>
        <path fill="#F2F2F2" d="M89.91 99.85h6.45V119a2.93 2.93 0 0 1-2.92 3h-.6a2.93 2.93 0 0 1-2.93-3V99.8v.05z"/>
        <path fill="#231F20" d="M93.24 122.24H93a3.39 3.39 0 0 1-3.39-3.38V99.58h7v19.28a3.39 3.39 0 0 1-3.37 3.38zm-3.06-22.12v18.74a2.86 2.86 0 0 0 2.82 2.85h.21a2.85 2.85 0 0 0 2.85-2.85v-18.74h-5.88zM77.85 58.44h-.53V33.75a4.16 4.16 0 0 0-4.16-4.16H24.55v-.53h48.61a4.7 4.7 0 0 1 4.69 4.69v24.69zM95.11 44.91v13.53h-.53V44.91"/>
        <rect width="38.56" height="16.95" x="24.26" y="21" fill="#FFF" rx="2.81"/>
        <path fill="#231F20" d="M59.63 38.22H27.44A3.46 3.46 0 0 1 24 34.77V24.19a3.45 3.45 0 0 1 3.45-3.45h32.18a3.45 3.45 0 0 1 3.45 3.45v10.58a3.46 3.46 0 0 1-3.45 3.45zM27.44 21.27a2.92 2.92 0 0 0-2.92 2.92v10.58a2.91 2.91 0 0 0 2.92 2.91h32.19a2.91 2.91 0 0 0 2.92-2.91V24.19a2.92 2.92 0 0 0-2.92-2.92H27.44z"/>
        <rect width="106.56" height="11.93" x=".57" y="87.92" fill="#F2F2F2" rx="5.41"/>
        <path fill="#231F20" d="M101.37 100.12h-95a6 6 0 0 1-6-6v-.4a6 6 0 0 1 6-6h95a6 6 0 0 1 6 6v.4a6 6 0 0 1-6 6zm-95-11.94a5.51 5.51 0 0 0-5.5 5.5v.4a5.5 5.5 0 0 0 5.5 5.5h95a5.5 5.5 0 0 0 5.5-5.5v-.4a5.51 5.51 0 0 0-5.5-5.5h-95z"/>
        <path fill="#F2F2F2" d="M7.26 99.85h6.45V119a2.93 2.93 0 0 1-2.93 3h-.6a2.93 2.93 0 0 1-2.92-3V99.8v.05z"/>
        <path fill="#231F20" d="M10.59 122.24h-.22A3.39 3.39 0 0 1 7 118.86V99.58h7v19.28a3.38 3.38 0 0 1-3.41 3.38zm-3.07-22.12v18.74a2.86 2.86 0 0 0 2.85 2.85h.22a2.86 2.86 0 0 0 2.85-2.85v-18.74H7.52z"/>
        <path fill="#FFF" d="M109.81 109.32h3.07v11a1.39 1.39 0 0 1-1.39 1.39h-.29a1.39 1.39 0 0 1-1.39-1.39v-11z"/>
        <path fill="#231F20" d="M111.4 122h-.1a1.75 1.75 0 0 1-1.75-1.75v-11.2h3.6v11.16a1.75 1.75 0 0 1-1.75 1.79zm-1.32-12.37v10.62c0 .674.546 1.22 1.22 1.22h.1a1.22 1.22 0 0 0 1.22-1.22v-10.66l-2.54.04z"/>
        <path fill="#FFF" d="M23.62 109.32h3.07v11a1.39 1.39 0 0 1-1.39 1.39H25a1.39 1.39 0 0 1-1.39-1.39v-11h.01z"/>
        <path fill="#231F20" d="M25.2 122h-.1a1.75 1.75 0 0 1-1.75-1.75v-11.2H27v11.16a1.75 1.75 0 0 1-1.8 1.79zm-1.32-12.37v10.62c0 .674.546 1.22 1.22 1.22h.1a1.22 1.22 0 0 0 1.22-1.22v-10.66l-2.54.04zM57 86.51H31c-6.627 0-12-5.373-12-12l3.29-21.55c0-6.627 5.373-12 12-12h19.94c6.627 0 12 5.373 12 12L69 74.52c-.006 6.624-5.376 11.99-12 11.99zm-37.41-12C19.579 80.83 24.68 85.967 31 86h26c6.317-.028 11.425-5.153 11.43-11.47L65.69 53a11.47 11.47 0 0 0-11.46-11.51H34.31A11.47 11.47 0 0 0 22.85 53l-3.26 21.51z"/>
        <path fill="#FFF" d="M57 86.24H31a11.73 11.73 0 0 1-11.58-9.82 12 12 0 0 1-.09-2.74L20.9 53.3v-.7c.195-6.345 5.402-11.384 11.75-11.37h23A11.72 11.72 0 0 1 67.33 53l1.33 20.94A11.57 11.57 0 0 1 57 86.24z"/>
        <path fill="#231F20" d="M57 86.51H31a12 12 0 0 1-11.84-10.05 11.63 11.63 0 0 1-.09-2.8l1.54-20.38v-.69c.18-6.5 5.537-11.658 12.04-11.59h23c6.627 0 12 5.373 12 12l1.33 20.93a11.83 11.83 0 0 1-12 12.63l.02-.05zm-24.32-45c-6.212-.046-11.317 4.89-11.48 11.1v.71L19.62 73.7a11.16 11.16 0 0 0 .09 2.68A11.4 11.4 0 0 0 31 86h26a11.52 11.52 0 0 0 11.4-10.56c.035-.51.035-1.02 0-1.53L67.07 53a11.48 11.48 0 0 0-11.46-11.51l-22.93.02z"/>
        <rect width="106.56" height="11.93" x="14.97" y="97.34" fill="#FFF" rx="5.41"/>
        <path fill="#231F20" d="M115.77 109.54h-95a6 6 0 0 1-6-6v-.4a6 6 0 0 1 6-6h95a6 6 0 0 1 6 6v.4a6 6 0 0 1-6 6zm-95-11.93a5.5 5.5 0 0 0-5.5 5.5v.4a5.51 5.51 0 0 0 5.5 5.5h95a5.51 5.51 0 0 0 5.5-5.5v-.4a5.5 5.5 0 0 0-5.5-5.5h-95z"/>
        <path fill="#231F20" d="M113 106.64a3.41 3.41 0 1 1 0-6.82 3.41 3.41 0 0 1 0 6.82zm0-6.28a2.88 2.88 0 1 0 0 5.76 2.88 2.88 0 0 0 0-5.76zM71.4 106.64a3.41 3.41 0 1 1-.02-6.82 3.41 3.41 0 0 1 .02 6.82zm0-6.28a2.88 2.88 0 1 0-.02 5.76 2.88 2.88 0 0 0 .02-5.76zM25.15 106.64a3.41 3.41 0 1 1 0-6.82 3.41 3.41 0 0 1 0 6.82zm0-6.28a2.88 2.88 0 1 0-.06 5.76 2.88 2.88 0 0 0 .06-5.76z"/>
        <path fill="#FFF" d="M83.8 29.16L70.68 48.32a3 3 0 0 0 2.41 4.62l25.8.29a3 3 0 0 0 2.5-4.56L88.71 29.21a3 3 0 0 0-4.91-.05z"/>
        <path fill="#231F20" d="M98.92 53.5l-25.81-.29a3.23 3.23 0 0 1-2.62-5L83.58 29l.22.15-.22-.15a3.22 3.22 0 0 1 5.35.06l12.69 19.45a3.22 3.22 0 0 1-2.7 5v-.01zM84 29.31L70.91 48.48a2.67 2.67 0 0 0 2.18 4.19l25.8.29a2.69 2.69 0 0 0 2.28-4.15L88.48 29.36a2.68 2.68 0 0 0-4.46 0l-.02-.05z"/>
        <path fill="#FFF" d="M71 61.92l2.8 19.89a5.16 5.16 0 0 0 5.11 4.43h24.79a5.15 5.15 0 0 0 5-6.32L104.09 60a5.15 5.15 0 0 0-5-4h-23A5.16 5.16 0 0 0 71 61.92z"/>
        <path fill="#231F20" d="M103.69 86.51H78.9a5.44 5.44 0 0 1-5.37-4.67L70.73 62a5.42 5.42 0 0 1 5.37-6.18h23a5.39 5.39 0 0 1 5.25 4.18L109 79.86a5.42 5.42 0 0 1-5.28 6.65h-.03zM76.1 56.31a4.9 4.9 0 0 0-4.84 5.57l2.8 19.89A4.91 4.91 0 0 0 78.9 86h24.79a4.89 4.89 0 0 0 4.76-6l-4.62-19.9a4.88 4.88 0 0 0-4.76-3.79H76.1z"/>
        <path fill="#ED4642" d="M49.57 52.23h-.2v.33a5.33 5.33 0 0 1-10.66 0v-.5h-.48c-5.48-.19-10.83 5-12.66 7a1.09 1.09 0 0 0 0 1.47L29 64.1a1.08 1.08 0 0 0 1.45.12 3.42 3.42 0 0 1 3.72-.7v15.06a3 3 0 0 0 3 3h14a3 3 0 0 0 3-3V63.52c1-.69 2.47.09 3.36.7A1.08 1.08 0 0 0 59 64l3.71-4.22a1.1 1.1 0 0 0 .09-1.31c-3.86-5.91-13.23-6.24-13.23-6.24z"/>
        <path fill="#231F20" d="M47.05 53.4h-6.37a.27.27 0 1 1 0-.54h6.37a.27.27 0 1 1 0 .54z"/>
        <path fill="#231F20" d="M43.87 53.17a.27.27 0 0 1-.27-.27v-2.54h.27a2.5 2.5 0 0 0 1.8-.76 2.48 2.48 0 0 0 .71-1.82 2.54 2.54 0 0 0-2.44-2.44 2.51 2.51 0 0 0-2.58 2.51.27.27 0 1 1-.54 0 3 3 0 0 1 .93-2.19 3 3 0 0 1 5.16 2.1 3 3 0 0 1-2.77 3.12v2a.27.27 0 0 1-.27.29z"/>
        <path fill="#FFF" d="M48.67 62.19L47 64.67a.39.39 0 0 0 .31.6h3.34a.38.38 0 0 0 .32-.59l-1.66-2.48a.39.39 0 0 0-.64-.01z"/>
        <path fill="#F2F2F2" d="M83.53 65.51h2.46v9.85h-2.46z"/>
        <path fill="#E5E5E5" d="M86.26 75.63h-3V65.25h3z"/>
        <path fill="#F2F2F2" d="M90.91 65.51h2.46v9.85h-2.46z"/>
        <path fill="#E5E5E5" d="M93.64 75.63h-3V65.25h3z"/>
        <path fill="#000" d="M91.9 68.96l7.13-4.72-.18 1.56-6.95 4.64"/>
        <circle cx="99.72" cy="64.8" r="3.03" fill="#000"/>
        <path fill="#000" d="M84.51 71.18l5.71 5.7.17-1.55-5.88-5.88"/>
        <circle cx="92.05" cy="77.49" r="3.03" fill="#000"/>
        <ellipse cx="138.67" cy="129.79" fill="#F2F2F2" rx="22.54" ry="3.67"/>
        <path fill="#ED4642" d="M148.78 44.53a7.52 7.52 0 0 1-2-2.19 3.4 3.4 0 0 0-.6 3.44 8.53 8.53 0 0 0 2.85 3.46 27.06 27.06 0 0 1 3.46 2.93c1.91 2.16-.61 3.51-.07 6.34 1.61 8.53 5.49 18.79 6.22 27.44a48.08 48.08 0 0 0 1.29 8.7 3.19 3.19 0 0 0 2.9 2.08 4.51 4.51 0 0 0 3.34-1.47c.41-.41.76-.88 1.21-1.25a2.22 2.22 0 0 1 1.63-.58 4.53 4.53 0 0 0 4.95-5.69 3.85 3.85 0 0 0 3.76-6.39c1.45-.25 2-2.24 1.32-3.57a9.18 9.18 0 0 0-3.13-3c-3.58-2.7-6.23-6.42-8.81-10.08a53.93 53.93 0 0 1-3.29-5c-3.1-5.66-4.15-12.39-8-17.6-.15-.2-.62-.73-1-.71l-6.03 3.14z"/>
        <path fill="#000" d="M141.34 131.75a3.28 3.28 0 0 1-1.83-.39.88.88 0 0 1-.36-.74c.14-1.52 2.08-2.16 3.64-2.67l.26-.09a3.22 3.22 0 0 0 2.48-2.41c0-.61-.38-11.09-3.43-19.83a5.86 5.86 0 0 0-.35-.75 10.28 10.28 0 0 1-1.27-6 .28.28 0 0 1 .3-.26.29.29 0 0 1 .26.3 9.6 9.6 0 0 0 1.21 5.73c.148.266.275.544.38.83 3.16 9 3.46 19.92 3.46 20v.05c-.16.93-.78 2.18-2.86 2.87l-.26.09c-1.33.44-3.16 1-3.26 2.17a.31.31 0 0 0 .14.26c1 .76 5.83-.13 10-1.38l-.09-1.32c0-.36.12-8.14.36-10.19.13-1.08.31-2.14.49-3.16.57-3.31 1.11-6.43-.16-9.92-1.4-3.82-1.22-4.6-.54-7.49.15-.63.32-1.33.5-2.2a.28.28 0 0 1 .55.11c-.18.88-.35 1.59-.5 2.22-.68 2.9-.82 3.5.52 7.17 1.34 3.67.77 6.82.18 10.21-.17 1-.35 2.06-.48 3.12-.24 2-.36 10-.36 10.11l.11 1.53a.28.28 0 0 1-.2.29c-.34.09-5.77 1.74-8.89 1.74z"/>
        <path fill="#000" d="M138 128a.3.3 0 0 1-.27-.3v-.51c.13-3.18.27-6.18.35-9.29l.11-1.47c.15-1.25.34-2.48.51-3.67.49-3.2 1-6.22.52-9-.67-4.41-.62-4.57.48-8.53l.22-.79c.13-.48.28-1 .46-1.54l-9.61 1.71-.36 2.85a9.14 9.14 0 0 0 .88 5.52c.145.286.265.584.36.89 2.19 8.3 2.17 19 2.17 19.49 0 .28.17 2.39-2.63 3.32a.28.28 0 1 1-.18-.53c2.54-.84 2.25-2.71 2.25-2.73 0-.11.06-11-2.15-19.35a5.53 5.53 0 0 0-.33-.81 9.54 9.54 0 0 1-.92-5.82l.37-3.06a.29.29 0 0 1 .23-.24l10.29-1.82a.27.27 0 0 1 .31.36c-.24.72-.43 1.36-.6 2l-.22.79c-1.09 3.93-1.11 4-.46 8.3.43 2.86 0 5.92-.52 9.16-.18 1.19-.36 2.41-.51 3.64l-.11 1.45c-.08 3.1-.21 6.1-.35 9.29v.51a.29.29 0 0 1-.29.18z"/>
        <path fill="#17BCB5" d="M132.27 44.82c-.82 2.21-2.12 7.49-2.89 10.76 1 3.73.29 7.57.76 11.36l4.16 3.59 3.3-30.45s-4.11 1.42-5.33 4.74z"/>
        <path fill="#B22B2B" d="M141.66 93.34c.47-7 4-18.88 1.66-24.1-2.34-5.22-8.7 1.89-11.69 1.38L129 93.49c0 1.91 3.53 3.63 5.24 4.51.482.225.98.416 1.49.57.451.157.912.284 1.38.38a7.14 7.14 0 0 0 1.67.07c1.15-.07 2.41-.39 2.86-1.15.45-.76-.05-3.44.02-4.53z"/>
        <path fill="#ED4642" d="M136.22 77.48s.12 15.24 1.08 19.27c.26 1.1.5 3.2 1.27 4.07.77.87 4.9 1 6 1 2 0 6-.43 6.52-2.79a45.27 45.27 0 0 0 .43-5c.36-3.59 1.09-7.41.86-11-.18-2.69-2.16-13.88-3.76-14.82-1.6-.94-15.4-5.9-12.4 9.27z"/>
        <path fill="#13756E" d="M154.8 46.88c.77-5.58-2-8-7.6-9.2-.41-.09-1.41 2.3-2.35 3.53a13.39 13.39 0 0 1-3.5 2.07c-.3 0-.51-4.1-.8-4.11a9.78 9.78 0 0 0-2.05-.17c-7.5 3.1-8.68 27.25-8.68 27.25l.87 12.06s15.34 2.41 21.09.69l3.02-32.12z"/>
        <path fill="#F2C994" d="M132.43 68.91l-19.62.22a3.89 3.89 0 0 1-4-3.86l-.25-22a3.91 3.91 0 0 1 3.86-4l16.14-.18h3.48a3.91 3.91 0 0 1 3.96 3.85l.25 22a3.91 3.91 0 0 1-3.82 3.97z"/>
        <path fill="#CCA983" d="M120 48l-.08-8.74 7.27-.09.06 8.73a2.14 2.14 0 0 1-2.09 2.15l-3 .06A2.13 2.13 0 0 1 120 48z"/>
        <path fill="#000" d="M130.47 71.23h-.15l-3.16-.63a.73.73 0 0 1-.57-.54.74.74 0 0 1 .22-.76l1.3-1.14h-.75a6.44 6.44 0 0 1-2.29-.36.72.72 0 0 1-.49-.77.73.73 0 0 1 .63-.67l3.24-.48h.13l5.64.18a.73.73 0 0 1 .47.19l2 1.7a.74.74 0 0 1 .25.71.77.77 0 0 1-.49.57l-5.7 2a.67.67 0 0 1-.28 0zm-2.09-3.66c.86 0 .86.06.88.29 0 0 0 .27-.3.32a.18.18 0 0 0-.1 0l-1.67 1.48a.18.18 0 0 0-.06.19.18.18 0 0 0 .14.14l3.16.63a.17.17 0 0 0 .1 0l5.69-2a.17.17 0 0 0 .12-.14.15.15 0 0 0-.06-.17l-2-1.71a.15.15 0 0 0-.11 0l-5.64-.18-3.23.47a.18.18 0 0 0-.16.17.17.17 0 0 0 .12.2 6.05 6.05 0 0 0 2.1.32l1.02-.01z"/>
        <path fill="#17BCB5" d="M148.09 46.33a81.46 81.46 0 0 0 .27 12.16 19.81 19.81 0 0 0-.49 2c-4.27.76-8.26 2.56-12.44 4a1.76 1.76 0 0 0-1.14 2.19c.42 1.36.46 2.92 1.68 3.89 1.75 1.38 18.28-1.93 20.12-5.33 1.84-3.4 1.19-17.35.42-21.14-.77-3.79-2.38-2.8-4.38-4.64a.24.24 0 0 0-.32 0c-2.31 1.54-3.43 3.22-3.72 6.87z"/>
        <path fill="#000" d="M141.51 43.48a1 1 0 0 1-.5-.13 1 1 0 0 1-.5-.84l-.34-3a5.15 5.15 0 0 1-1.89-.21c-3.61-1-3.72-9.52-3.55-11.57.21-2.68 3.09-3.35 3.12-3.35A7.66 7.66 0 0 1 144 25a5.21 5.21 0 0 1 2.41 2.8c.26 1.13-.46 4.9-.91 7a.82.82 0 0 0 .27.79L147 37c.38.347.47.91.22 1.36-.31.54-.8 1.25-1.32 2-.26.37-.52.76-.77 1.13a4.19 4.19 0 0 1-2.13 1.44 8.7 8.7 0 0 0-1 .44 1 1 0 0 1-.49.11zm-1.09-4.61a.28.28 0 0 1 .28.25l.37 3.35a.44.44 0 0 0 .64.4 8.6 8.6 0 0 1 1-.46 3.62 3.62 0 0 0 1.89-1.25c.25-.38.52-.76.78-1.14.51-.74 1-1.44 1.29-2a.52.52 0 0 0-.11-.66l-1.21-1.31a1.4 1.4 0 0 1-.43-1.31c.74-3.52 1.08-6.07.91-6.8a4.63 4.63 0 0 0-2.15-2.45 7.19 7.19 0 0 0-5.73-.62c-.11 0-2.51.59-2.69 2.85-.21 2.64.13 10.16 3.14 11a4.11 4.11 0 0 0 1.93.15h.09zM137.78 127l.4-7.13-4.52-.08a5.86 5.86 0 0 0-.16 1.88c.11 2.41-.26 4.24-2.2 4.72a.88.88 0 0 1-.15-.21 7.78 7.78 0 0 0-3.69 1.22 1 1 0 0 0 0 1.43c1.82 1.7 7.3 0 10.64-.31.08-.43.05-1.07.12-1.62a2.84 2.84 0 0 1-.44.1zM150 125.49l.07-4.68-4.39-.08.18 3.57h-.12s1 3-3.43 4.21l-.05-.08c-1.31.46-2.73 1.07-2.83 2.2 0 1.87 7.1.21 10.67-.88v-1.32h-.07l-.09-2.95.06.01z"/>
        <path fill="#ED4642" d="M147.34 38.92a1.61 1.61 0 0 1 .41-.86 2.55 2.55 0 0 1 1.88-.51 7.54 7.54 0 0 1 6.28 2.73c1.21 1.38 3.51 7.38 3.77 9.19.08.54-1.65-3-1.79-2.51a18 18 0 0 1-.76 2.65 13.55 13.55 0 0 0-.51-3s-2.12-5.42-3.09-6.08c-.97-.66-6.53.98-6.19-1.61z"/>
        <path fill="#ED4642" d="M153.87 42.08a5.76 5.76 0 0 1 1.83 2.6c.34.94.43 1.95.74 2.89.18.55.37 1.09.5 1.66.13.57.23 1.21.35 1.81.053.323.162.634.32.92a.84.84 0 0 0 .15-.52 9.33 9.33 0 0 0-.31-2.51 5.26 5.26 0 0 0-.42-1.21.47.47 0 0 0-.25-.25c-.43-.15-.25.43-.19.59.107.39.244.771.41 1.14a.78.78 0 0 0 .42.34c.2 0 .28-.26.29-.47 0-1.5.33-2 0-3.49a10.47 10.47 0 0 0-1.45-3.58 5.51 5.51 0 0 0-3.13-2.25 9.4 9.4 0 0 0-2-.15h-1.76c-.61 0-1.06.53-.33.81.49.19 1.11 0 1.63.07a7.16 7.16 0 0 1 3.2 1.6z"/>
        <path fill="#ED4642" d="M157.13 51.89a3.53 3.53 0 0 0 .44 1.5l.07.06c.07.06.12 0 .15-.09a2.33 2.33 0 0 0 .33-1.16v-1.22a7.6 7.6 0 0 0 0-1c0-.32-.13-.64-.2-1s-.12-.82-.22-1.22a6.19 6.19 0 0 0-1.42-2.55c-.09-.1-.32-.34-.39-.13-.07.21.14.56.18.72.12.48.24 1 .34 1.44.21 1 .38 2 .53 2.94.06.62.11 1.17.19 1.71z"/>
        <path fill="#B22B2B" d="M145.51 15.34s-9.12 2.95-8.62 7.7c.3 2.85 2.39 2.89 4 2.46a7.4 7.4 0 0 1 5.35.57c1.43.77 2.61 1.79 1.86 2.9a14.91 14.91 0 0 0-.79 1.29 1.51 1.51 0 0 1 0 .44c-.09 1 .14 3.54 1 4.42l-5.87.39a13.52 13.52 0 0 0-.55-2.58 13.18 13.18 0 0 0-.73-1.77 2.64 2.64 0 0 0-3.43-.72 1.7 1.7 0 0 1-.67.17c-1.53 0-7.11 0-6.81-3.9.42-4.5 9.29-13.05 15.26-11.37z"/>
        <path fill="#17BCB5" d="M135.27 26.73L148 30.66l.44-1.41A5.16 5.16 0 0 0 145 22.8l-3.41-1.06c-2.72-.84-5 .86-5.88 3.58l-.44 1.41z"/>
        <path fill="#13756E" d="M141.44 21.69l3.38 1.05a4.5 4.5 0 0 0-5.64 3l-.63 2-3.47-1.08.6-1.94a4.61 4.61 0 0 1 5.76-3.03z"/>
        <path fill="#13756E" d="M135.24 26.73l16.28 5a1.21 1.21 0 0 0 1.52-.8l-17.44-5.36-.36 1.16z"/>
        <path fill="#F2C994" d="M33 34.5l5.77-9.91 5.78 9.91z"/>
        <path fill="#ED4642" d="M38.21 34.5l5.78-9.91 5.77 9.91z"/>
        <path fill="#17BCB5" d="M43.45 34.5l5.78-9.91L55 34.5z"/>
        <path fill="#DF392F" d="M38.21 34.5h6.34l-3.19-5.43z"/>
        <path fill="#16342F" d="M43.43 34.5h6.33l-3.14-5.43z"/>
        <path fill="#15291A" d="M43.43 34.5h1.12l-.56-.95z"/>
    </g>
</svg>
